Coordinates
version=1
nRows=8
nColumns=40
inDegrees=yes

Units are S.I. units (second, meters, Newtons, ...)
Angles are in degrees.

endheader
time	pelvis_tilt	pelvis_list	pelvis_rotation	pelvis_tx	pelvis_ty	pelvis_tz	hip_flexion_r	hip_adduction_r	hip_rotation_r	knee_angle_r	knee_angle_r_beta	ankle_angle_r	subtalar_angle_r	mtp_angle_r	hip_flexion_l	hip_adduction_l	hip_rotation_l	knee_angle_l	knee_angle_l_beta	ankle_angle_l	subtalar_angle_l	mtp_angle_l	lumbar_extension	lumbar_bending	lumbar_rotation	arm_flex_r	arm_add_r	arm_rot_r	elbow_flex_r	pro_sup_r	wrist_flex_r	wrist_dev_r	arm_flex_l	arm_add_l	arm_rot_l	elbow_flex_l	pro_sup_l	wrist_flex_l	wrist_dev_l
      0.00000000	     -4.18176017	     -0.36015046	      5.92533850	     -1.01211170	      0.92376584	      1.39614497	     28.59787170	     -9.09425230	    -24.87693748	    -14.92139123	     -0.26042741	     -0.28046206	     -0.15784332	     -0.99060552	     -7.59784881	      0.33126823	      3.45612378	    -14.77830022	     -0.25793000	      8.22198843	     -7.35171172	    -18.75600724	     -2.55924682	      1.88602158	     -8.20385559	     -4.10627057	    -11.23608031	    -25.96397845	     15.31326683	     89.95437384	      0.00000000	      0.00000000	     14.08138176	     11.86138752	     -1.27399052	     42.15911411	     89.95437384	      0.00000000	      0.00000000
      0.01000000	     -4.11314191	     -0.42359198	      6.27561328	     -1.00174181	      0.92289672	      1.39852877	     28.39456001	     -9.06789719	    -24.86671749	    -15.86750821	     -0.27694026	     -1.21042917	     -0.67162570	     -0.87342750	     -8.18944235	      0.73705492	      3.07761938	    -15.01675706	     -0.26209185	      8.14754542	     -7.49713858	    -18.59233342	     -2.43672427	      1.95010654	     -8.30292830	     -4.47467282	    -11.22211674	    -26.04277397	     14.85296184	     89.95437384	      0.00000000	      0.00000000	     13.43457641	     11.66993988	     -1.05855269	     41.08547603	     89.95437384	      0.00000000	      0.00000000
      0.02000000	     -4.03335078	     -0.49958558	      6.52867176	     -0.99157061	      0.92224057	      1.40098701	     28.38461612	     -9.14442926	    -25.01283951	    -17.01306408	     -0.29693398	     -3.13147362	     -1.19222358	     -0.58034071	     -8.70765898	      1.15405461	      2.85613984	    -15.35535592	     -0.26800152	      7.97486952	     -7.52081635	    -18.37462192	     -2.39594336	      2.06129551	     -8.35425111	     -4.76478636	    -11.21002939	    -26.11406326	     14.52243090	     89.95437384	      0.00000000	      0.00000000	     12.87013336	     11.45083503	     -0.83165210	     39.77696537	     89.95437384	      0.00000000	      0.00000000
      0.03000000	     -4.01935874	     -0.64088997	      6.79262740	     -0.98169134	      0.92178739	      1.40369161	     28.43825803	     -9.07261444	    -24.29796479	    -18.04799459	     -0.31499693	     -4.30182399	     -1.25450924	     -0.43467242	     -8.97148228	      1.65511952	      2.58195348	    -16.00506890	     -0.27934115	      7.61818682	     -7.31059925	    -17.99400362	     -2.32022211	      2.20433513	     -8.43028219	     -5.09382543	    -11.12992262	    -26.11005439	     14.45462311	     89.95437384	      0.00000000	      0.00000000	     12.11781815	     11.33219318	     -0.60149340	     38.80583766	     89.95437384	      0.00000000	      0.00000000
      0.04000000	     -4.10478944	     -1.01832267	      6.94791765	     -0.97160960	      0.92159000	      1.40656903	     28.64005016	     -8.73515693	    -23.76546258	    -19.06756913	     -0.33279186	     -5.69494105	     -1.97334302	     -0.45773514	     -9.00917025	      2.40697251	      2.58112389	    -16.79914406	     -0.29320038	      7.15182217	     -7.30056079	    -17.88573667	     -2.09141895	      2.63761982	     -8.35275466	     -5.25655544	    -11.13532252	    -26.54746496	     13.97095004	     89.95437384	      0.00000000	      0.00000000	     11.65056972	     10.70919691	      0.60170191	     36.90715107	     89.95437384	      0.00000000	      0.00000000
      0.05000000	     -4.39688680	     -1.42201032	      6.91565636	     -0.96169457	      0.92116193	      1.40995582	     29.26201537	     -8.21503822	    -22.57433186	    -20.47807275	     -0.35740979	     -6.27270812	     -3.29893205	     -0.93726573	     -8.67651590	      3.21492712	      2.87738753	    -17.90482562	     -0.31249816	      6.61497487	     -7.82023659	    -18.09002066	     -1.68158980	      3.04334348	     -8.15189623	     -5.38532001	    -11.11105972	    -26.88090575	     13.59124117	     89.95437384	      0.00000000	      0.00000000	     10.94465281	     10.31160407	      1.46149719	     35.40872747	     89.95437384	      0.00000000	      0.00000000
      0.06000000	     -4.31024226	     -1.63446211	      6.89693470	     -0.95134671	      0.92155605	      1.41315673	     29.43735778	     -7.94338576	    -22.04836946	    -22.18668701	     -0.38723074	     -5.99500174	     -3.99818438	     -1.07032208	     -8.88647473	      3.76424828	      2.85216126	    -18.79005592	     -0.32794834	      5.94460328	     -7.43482170	    -17.66455768	     -1.67591888	      3.26637925	     -7.94192185	     -5.56573230	    -11.11778360	    -26.54347487	     13.37880806	     89.95437384	      0.00000000	      0.00000000	     10.26788596	     10.14642110	      1.70754720	     33.82322689	     89.95437384	      0.00000000	      0.00000000
      0.07000000	     -4.28010927	     -1.82161187	      6.73041121	     -0.94077779	      0.92207771	      1.41669326	     29.57721434	     -7.44981945	    -21.08731910	    -23.68128424	     -0.41331638	     -5.47247115	     -4.82737930	     -1.18295911	     -8.96988897	      4.26787304	      2.90561065	    -19.82603956	     -0.34602967	      5.10342458	     -7.03867050	    -17.23542756	     -1.59061381	      3.43443317	     -7.62381991	     -5.74744000	    -11.09405887	    -26.14542400	     13.21247251	     89.95437384	      0.00000000	      0.00000000	      9.45145113	      9.93338854	      2.26373800	     32.21073320	     89.95437384	      0.00000000	      0.00000000
